# xmcd
#
# Track frame offsets:
#   150
#   15907
#   43130
#   47700
#   51922
#   56715
#   61367
#   66145
#   70637
#   75007
#   79857
#
# Disc length: 1116 seconds
#
# Revision: 0
# Processed by: cddbd v1.5.1PL0 Copyright (c) Steve Scherf et al.
# Submitted via: Precision_Digital_Audio_Extractor 1.50.0
#
DISCID=86045a0b
DTITLE=Various Artist - Tribute To Tradition
DYEAR=1998
DGENRE=Country
TTITLE0=Marty Stuart - Same Old Train (Radio Edit)
TTITLE1=Marty Stuart - Same Old Train (Album Version)
TTITLE2=Rick Trevino - City Lights
TTITLE3=Collin Raye - Cold Cold Heart
TTITLE4=Patty Loveless - Wine, Women And Song
TTITLE5=Joe Diffie - Behind Closed Doors
TTITLE6=Mary Chapin Carpenter - Oh, Lonesome Me
TTITLE7=Wade Hayes - She's Actin' Single (I'm Drinkin' Dou
TTITLE8=Collin Raye and Joe Diffie - Honkey Tonk Hero's (Lik
TTITLE9=Doug Stone - Gone Out Of My Mind
TTITLE10=Dixie Chicks - Stand By Your Man
EXTD=
EXTT0=
EXTT1=
EXTT2=
EXTT3=
EXTT4=
EXTT5=
EXTT6=
EXTT7=
EXTT8=
EXTT9=
EXTT10=
PLAYORDER=
